/* XPM */
static char * ammo_xpm[] = {
"99 76 126 2",
"  	c None",
". 	c #D0AB3C",
"+ 	c #F5AB15",
"@ 	c #D6B942",
"# 	c #CA942E",
"$ 	c #BE8427",
"% 	c #E5772E",
"& 	c #B4812D",
"* 	c #8A6A4A",
"= 	c #836245",
"- 	c #9D3A27",
"; 	c #B74637",
"> 	c #B29060",
", 	c #BC8B30",
"' 	c #A16F41",
") 	c #7F4640",
"! 	c #7A5A40",
"~ 	c #AE952D",
"{ 	c #A19653",
"] 	c #AF7828",
"^ 	c #FBC906",
"/ 	c #FFDD00",
"( 	c #FFD103",
"_ 	c #F58B25",
": 	c #F99924",
"< 	c #E97E2A",
"[ 	c #9C2E28",
"} 	c #A63026",
"| 	c #FFE100",
"1 	c #FF901C",
"2 	c #E88726",
"3 	c #C55D25",
"4 	c #952824",
"5 	c #FABE09",
"6 	c #FFD302",
"7 	c #FECE04",
"8 	c #AF281F",
"9 	c #C9483B",
"0 	c #FFD800",
"a 	c #8F2423",
"b 	c #83211E",
"c 	c #6D3B3A",
"d 	c #E56D2F",
"e 	c #E8D24A",
"f 	c #F4E155",
"g 	c #EDD94B",
"h 	c #5C2E34",
"i 	c #E6CA4A",
"j 	c #8A7147",
"k 	c #FEFDB4",
"l 	c #F9EDCC",
"m 	c #AB362B",
"n 	c #FEE790",
"o 	c #FBDF89",
"p 	c #F3D787",
"q 	c #977852",
"r 	c #FEEF57",
"s 	c #FBF3D4",
"t 	c #FDFAD9",
"u 	c #9F6A1F",
"v 	c #77664E",
"w 	c #B79364",
"x 	c #C0A788",
"y 	c #C8AA8D",
"z 	c #BD9A68",
"A 	c #72553E",
"B 	c #412E23",
"C 	c #49352D",
"D 	c #A5825A",
"E 	c #BAA085",
"F 	c #AB8B5B",
"G 	c #614934",
"H 	c #B08E60",
"I 	c #7D6043",
"J 	c #714040",
"K 	c #6E6356",
"L 	c #7C6A55",
"M 	c #9F886E",
"N 	c #664E4D",
"O 	c #563D42",
"P 	c #5C4443",
"Q 	c #44323C",
"R 	c #33262B",
"S 	c #2D1F27",
"T 	c #222423",
"U 	c #6C594D",
"V 	c #8D7C60",
"W 	c #614847",
"X 	c #806E55",
"Y 	c #4E433C",
"Z 	c #716048",
"` 	c #857358",
" .	c #A3926F",
"..	c #5A3F2C",
"+.	c #343439",
"@.	c #3F3F42",
"#.	c #3B3B3D",
"$.	c #585858",
"%.	c #5D5959",
"&.	c #5E5C54",
"*.	c #434448",
"=.	c #555656",
"-.	c #585758",
";.	c #565454",
">.	c #585856",
",.	c #47484D",
"'.	c #575757",
").	c #595555",
"!.	c #575758",
"~.	c #555A59",
"{.	c #575858",
"].	c #271821",
"^.	c #2D2E31",
"/.	c #575857",
"(.	c #4E535A",
"_.	c #5D5E5D",
":.	c #3B271E",
"<.	c #4B4D52",
"[.	c #AD8A5E",
"}.	c #CDAD71",
"|.	c #CFB293",
"1.	c #CAA36C",
"2.	c #CBAC72",
"3.	c #5B4D54",
"4.	c #626362",
"5.	c #5D5659",
"            . + @ . # $ % # & * = - ; ;                     > @ @ @ . , % % # , ' ) - - !                     ~ . . . . . # % % , ' ) ) -                       { . + @ . # $ # , ] = = - -           ",
"            ^ / / ( + _ _ : < ; [ [ } } )                   @ | / / ^ : _ 1 : 2 3 [ [ } 4                     5 | 6 / 7 + _ 1 : 2 3 [ [ } -                     # | / | ^ + _ _ : % - 4 8 }           ",
"            ^ 6 6 7 + 2 2 _ < 9 [ [ - - )                   . 6 ( ( ^ : 2 2 _ 2 3 } [ } 4                     5 / ( ( 7 + < 2 _ < 3 [ - - -                     # 0 ( 0 5 : < 2 : % - 4 - [           ",
"            5 ^ ^ ^ + < % _ < ; 4 a b b c                   . ^ ^ ^ 5 2 % % _ < 3 [ 4 4 a                     + 7 ^ ^ 5 : < < < % 3 4 [ [ 4                     . ^ ^ ^ 5 _ % < _ d - a 4 4           ",
"            e f f g + : : + 2 % ; ; 3 ; h                   i f f f g : : : + : % ; ; 3 ;                     i f f f f i : : : : % 3 3 3 ;                     @ f f f e @ : : + 2 3 ; 3 3           ",
"j . 5 5 + f k k l k f 5 5 7 5 + < % 2 d ; m ; ; ' , + 5 5 i n l l l k f 5 5 ^ 5 + < % 2 d ; - ' ' ' # @ + @ i n k k l k o 5 ^ ^ 5 : < 2 2 % ; ; ; ' & + 5 5 + i p k k k o e 5 ^ ^ + 2 % 2 < 3 - ; - ; ",
"q + | 0 ^ r l s s s p ^ ( 0 7 + 2 2 2 : 3 - [ } - + / / 0 g k t t t s p 7 6 / 6 5 : _ _ 2 3 [ 4 [ ] + / 0 7 f k t t t t n 7 6 0 7 : _ _ _ < ; 4 } - $ 0 / 0 6 g n s l s k g 7 0 / 5 : _ : _ 3 - 4 } } ",
"q 5 0 7 5 f l k l l p ^ ^ 6 ^ : < 2 2 _ 3 - [ [ - + 6 6 7 g k s s s l o ^ ^ 6 ( + _ < _ _ 3 [ 4 [ u + 0 6 ^ f k t s s s n ^ 7 6 ^ : < 2 2 < 3 4 [ - $ 7 6 ( ^ i n s k s k g ^ ( 0 5 _ < 2 _ 3 - 4 } - ",
"q 5 0 ^ ^ f s t t s o ^ 7 6 ^ : < 2 2 _ 3 - [ [ - + 6 6 7 g k s s s k o 7 7 6 ( + 2 < _ _ 3 [ 4 [ u + / 6 ^ f k t s s s n ^ 7 6 ^ : < 2 2 < 3 4 [ - $ ( 6 ( 7 g n t s t k g ^ ( 6 5 _ < 2 2 3 - 4 } } ",
"q 5 0 ^ ^ f s t t s o ^ 7 0 ^ : < 2 2 _ 3 - [ [ - + 6 6 7 g k s s t k o 7 7 6 ( + 2 < _ _ 3 [ 4 [ u + | 6 ^ f k t s s s n 7 7 6 ^ : < 2 2 < 3 4 [ - $ ( 0 ( 7 g n t s t k g ^ ( 6 5 _ < 2 2 3 - 4 } } ",
"q 5 0 ^ ^ g o n n o g ^ 7 0 ^ : < 2 2 _ 3 - [ [ - + 6 6 7 g f o n n o g 7 7 6 ( + 2 < _ _ 3 [ 4 [ u + | 6 ^ g o n n n o f 7 7 6 ^ : < 2 2 < 3 4 [ - $ ( 0 ( 7 ^ p n n n f ^ 7 ( 6 5 _ < 2 2 3 - 4 } } ",
"q 5 0 7 7 ^ g g g g ^ 7 7 0 ^ : < 2 2 _ 3 - [ [ - + 6 6 7 ^ ^ g g g g ^ 7 7 6 ( + 2 < _ _ 3 [ 4 [ u + | 6 ^ ^ g g g g g ^ 7 7 6 ^ : < 2 2 < 3 4 [ - $ ( 0 ( 7 ^ ^ g g g ^ 7 7 7 6 5 _ < 2 2 3 - 4 } } ",
"q 5 0 7 7 7 7 7 7 7 7 7 7 0 ^ : < 2 2 _ 3 - [ [ - + 6 6 7 7 7 7 7 7 7 7 7 7 6 ( + 2 < _ _ 3 [ 4 [ u + | 6 ^ 7 7 7 7 7 7 7 7 7 6 ^ : < 2 2 < 3 4 [ - $ ( 0 ( 7 7 7 7 7 7 7 7 7 7 6 5 _ < 2 2 3 - 4 } } ",
"q 5 0 7 7 7 7 7 7 7 7 7 7 0 ^ : < 2 2 _ 3 - [ [ - + 6 6 7 7 7 7 7 7 7 7 7 7 6 ( + 2 < _ _ 3 [ 4 [ u + | 6 ^ 7 7 7 7 7 7 7 7 7 6 ^ : < 2 2 < 3 4 [ - $ ( 0 ( 7 7 7 7 7 7 7 7 7 7 6 5 _ < 2 2 3 - 4 } } ",
"q 5 0 7 7 7 7 7 7 7 7 7 7 0 ^ : < 2 2 _ 3 - [ [ - + 6 6 7 7 7 7 7 7 7 7 7 7 6 ( + 2 < _ _ 3 [ 4 [ u + | 6 ^ 7 7 7 7 7 7 7 7 7 6 ^ : < 2 2 < 3 4 [ - $ ( 0 ( 7 7 7 7 7 7 7 7 7 7 6 5 _ < 2 2 3 - 4 } } ",
"q 5 0 7 7 7 7 7 7 7 7 7 7 0 ^ : < 2 2 _ 3 - [ [ - + 6 6 7 7 7 7 7 7 7 7 7 7 6 ( + 2 < _ _ 3 [ 4 [ u + | 6 ^ 7 7 7 7 7 7 7 7 7 6 ^ : < 2 2 < 3 4 [ - $ ( 0 ( 7 7 7 7 7 7 7 7 7 7 6 5 _ < 2 2 3 - 4 } } ",
"q 5 0 7 7 7 7 7 7 7 7 7 7 0 ^ : < 2 2 _ 3 - [ [ - + 6 6 7 7 7 7 7 7 7 7 7 7 6 ( + 2 < _ _ 3 [ 4 [ u + | 6 ^ 7 7 7 7 7 7 7 7 7 6 ^ : < 2 2 < 3 4 [ - $ ( 0 ( 7 7 7 7 7 7 7 7 7 7 6 5 _ < 2 2 3 - 4 } } ",
"q 5 0 7 7 7 7 7 7 7 7 7 7 0 ^ : < 2 2 _ 3 - [ [ - + 6 6 7 7 7 7 7 7 7 7 7 7 6 ( + 2 < _ _ 3 [ 4 [ u + | 6 ^ 7 7 7 7 7 7 7 7 7 6 ^ : < 2 2 < 3 4 [ - $ ( 0 ( 7 7 7 7 7 7 7 7 7 7 6 5 _ < 2 2 3 - 4 } } ",
"q 5 0 7 7 7 7 7 7 7 7 7 7 0 ^ : < 2 2 _ 3 - [ [ - + 6 6 7 7 7 7 7 7 7 7 7 7 6 ( + 2 < _ _ 3 [ 4 [ u + | 6 ^ 7 7 7 7 7 7 7 7 7 6 ^ : < 2 2 < 3 4 [ - $ ( 0 ( 7 7 7 7 7 7 7 7 7 7 6 5 _ < 2 2 3 - 4 } } ",
"q 5 0 7 7 7 7 7 7 7 7 7 7 0 ^ : < 2 2 _ 3 - [ [ - + 6 6 7 7 7 7 7 7 7 7 7 7 6 ( + 2 < _ _ 3 [ 4 [ u + | 6 ^ 7 7 7 7 7 7 7 7 7 6 ^ : < 2 2 < 3 4 [ - $ ( 0 ( 7 7 7 7 7 7 7 7 7 7 6 5 _ < 2 2 3 - 4 } } ",
"q 5 0 7 7 7 7 7 7 7 7 7 7 0 ^ : < 2 2 _ 3 - [ [ - + 6 6 7 7 7 7 7 7 7 7 7 7 6 ( + 2 < _ _ 3 [ 4 [ u + | 6 ^ 7 7 7 7 7 7 7 7 7 6 ^ : < 2 2 < 3 4 [ - $ ( 0 ( 7 7 7 7 7 7 7 7 7 7 6 5 _ < 2 2 3 - 4 } } ",
"q 5 0 7 7 7 7 7 7 7 7 7 7 6 ^ : < 2 2 _ 3 - [ [ - + 6 6 7 7 7 7 7 7 7 7 7 7 6 ( + 2 < _ _ 3 [ 4 [ u + | 6 ^ 7 7 7 7 7 7 7 7 7 6 ^ : < 2 2 < 3 4 [ - $ 7 0 ( 7 7 7 7 7 7 7 7 7 7 6 5 _ < 2 2 3 - 4 } } ",
"q 5 0 7 ( ( ( ( ( ( ( ( 7 0 ^ : < 2 _ _ 3 - [ [ - + 6 6 ( ( ( ( ( ( ( ( ( 7 0 ( + _ < _ _ 3 [ 4 [ u + | 6 7 ( ( ( ( ( ( ( ( ( 6 ^ : < 2 _ < 3 4 [ - $ 7 0 ( ( ( ( ( ( ( ( ( ( ( 0 5 _ < 2 2 3 - [ } } ",
"q 5 | 6 0 6 6 6 6 6 0 0 0 / 7 : 2 _ _ _ 3 - [ [ - + 0 0 0 0 6 6 6 6 6 6 0 6 / 6 + _ 2 : _ 3 [ [ [ 3 + | 0 6 0 6 6 6 6 6 6 0 0 0 7 : _ _ _ < 3 [ [ - $ 0 / 0 0 0 6 6 6 6 6 6 6 6 / 5 _ < _ _ 3 - [ } } ",
"q . i @ @ i i i i i i @ @ i @ # d $ $ 2 ] - a a ) # i @ @ @ i i i i i i @ @ i @ # % % # $ ; a a a u . i @ @ @ i i i i i i @ @ @ . 2 % # # $ - a a 4 & @ @ @ @ @ i i i i i @ @ @ @ # $ d # # ; 4 a 4 4 ",
"v q { q q w x y y x z q q { q = ) ! ! = A h h B C j { q q D E y x x E F q q D D j ) ! = ! G h B h G j D q q F x y x x x H q q q q = ) ! I ! h B h h A q q q q F z y x x E F q q D j ! ) ! = J h h h h ",
"K K L K v M x x y x M L K L v N O O O P Q R S T S U L L K L E x x x E V K K L v U O O W P Q S S S Q U X v v V E y x x x M K K L K W O O P O R T S S Y v L K Z `  .y x x E V v v L U P O O P Q S S S S ",
"K L X L L M x x y x  .X L X L U P P P W Q R S S R U X X v X E x x y x M L X X X U P P W P Q S S S Q Z ` X v V E y x x x  .v L X L N P P W P Q S S S ..L X L v `  .y x y E V v X X v W O W P C S S S R ",
"K L X L L M x x y x  .X L ` L U P P P W Q R S S R U X X L X E x x y x M L L X X U P P W W Q S S S Q Z ` X v V E y x x x  .L X X L N P P W P Q S S S Y L X X v `  .y x y E V v X ` v W O W P C S S S R ",
"K L X L L M x x y x  .X L ` L U P P P W Q R S S R U X X L X E x x y x M L L X X U P P W W Q S S S Q Z ` X v V E y x x x  .L X X L N P P W P Q S S S Y L X X v `  .y x y E V v L ` v W O W P C S S S R ",
"K L X L L M x x y x  .X L ` L U P P P W Q R S S R U X X L X E x x y x M L L X X U P P W W Q S S S Q Z ` X v V E y x x x  .L X X L N P P W P Q S S S Y L X X v `  .y x y E V v L ` v W O W P C S S S R ",
"K X ` L L M x x y x  .X L ` L U P P P W Q R S S R U X X L X E x x y x M L L X X U P P W W Q S S S Q Z ` X v V E y x x x  .L X X L N P P W P Q S S S Y L X X v `  .y x y E V v L ` v W O W P C S S S R ",
"K X ` L L M x x y x  .X L ` L U P P P W Q R S S R U X X L X E x x y x M L L X X U P P W W Q S S S Q Z ` X v V E y x x x  .L X X L N P P W P Q S S S Y L X X v `  .y x y E V v L ` v W O W P C S S S R ",
"K X ` L L M x x y x  .X L ` L U P P P W Q R S S R U X X L X E x x y x M L L X X U P P W W Q S S S Q Z ` X v V E y x x x  .L X X L N P P W P Q S S S Y L X X v `  .y x y E V v L ` v W O W P C S S S R ",
"K X ` L L M x x y x  .X L ` L U P P P W Q R S S R U X X L X E x x y x M L L X X U P P W W Q S S S Q Z ` X v V E y x x x  .L X X L N P P W P Q S S S Y L X X v `  .y x y E V v L ` v W O W P C S S S R ",
"K X ` L L M x x y x  .X L ` L U P P P W Q R S S R U X X L X E x x y x M L L X X U P P W W Q S S S Q Z ` X v V E y x x x  .L X X L N P P W P Q S S S Y L X X v `  .y x y E V v L ` v W O W P C S S S R ",
"K X ` L L M x x y x  .X L ` L U P P P W Q R S S R U X X L X E x x y x M L L X X U P P W W Q S S S Q Z ` X v V E y x x x  .L X X L N P P W P Q S S S Y L X X v `  .y x y E V v L ` v W O W P C S S S R ",
"K X ` L L M x x y x  .X L ` L U P P P W Q R S S R U X X L X E x x y x M L L X X U P P W W Q S S S Q Z ` X v V E y x x x  .L X X L N P P W P Q S S S Y L X X v `  .y x y E V v L ` v W O W P C S S S R ",
"K X ` L L M x x y x  .X L ` L U P P P W Q R S S R U X X L X E x x y x M L L X X U P P W W Q S S S Q Z ` X v V E y x x x  .L X X L N P P W P Q S S S Y L X X v `  .y x y E V v L ` v W O W P C S S S R ",
"K X ` L L M x x y x  .X L ` L U P P P W Q R S S R U X X L X E x x y x M L L X X U P P W W Q S S S Q Z ` X v V E y x x x  .L X X L N P P W P Q S S S Y L X X v `  .y x y E V v L ` v W O W P C S S S R ",
"K X ` L L M x x y x  .X L ` L U P P P W Q R S S R U X X L X E x x y x M L L X X U P P W W Q S S S Q Z ` X v V E y x x x  .L X X L N P P W P Q S S S Y L X X v `  .y x y E V v L ` v W O W P C S S S R ",
"K X ` L L M x x y x  .X L ` L U P P P W Q R S S R U X X L X E x x y x M L L X X U P P W W Q S S S Q Z ` X v V E y x x x  .L X X L N P P W P Q S S S Y L X X v `  .y x y E V v L ` v W O W P C S S S R ",
"K X ` L L M x x y x  .X L ` L U P P P W Q R S S R U X X L X E x x y x M L L X X U P P W W Q S S S Q Z ` X v V E y x x x  .L X X L N P P W P Q S S S Y L X X v `  .y x y E V v L ` v W O W P C S S S R ",
"K X ` L L M x x y x  .X L ` L U P P P W Q R S S R U X X L X E x x y x M L L X X U P P W W Q S S S Q Z ` X v V E y x x x  .L X X L N P P W P Q S S S Y L X X v `  .y x y E V v L ` v W O W P C S S S R ",
"K X ` L L M x x y x  .X L ` L U P P P W Q R S S R U X X L X E x x y x M L L X X U P P W W Q S S S Q Z ` X v V E y x x x  .L X X L N P P W P Q S S S Y L X X v `  .y x y E V v L ` v W O W P C S S S R ",
"K X ` L L M x x y x  .X L ` L U P P P W Q R S S R U X X L X E x x y x M L L X X U P P W W Q S S S Q Z ` X v V E y x x x  .L X X L N P P W P Q S S S Y L X X v `  .y x y E V v L ` v W O W P C S S S R ",
"K X ` L L M x x y x  .X L ` L U P P P W Q R S S R U X X L X E x x y x M L L X X U P P W W Q S S S Q Z ` X v V E y x x x  .L X X L N P P W P Q S S S Y L X X v `  .y x y E V v L ` v W O W P C S S S R ",
"K X ` L L M x x y x  .X L ` L U P P P W Q R S S R U X X L X E x x y x M L L X X U P P W W Q S S S Q Z ` X v V E y x x x  .L X X L N P P W P Q S S S Y L X X v `  .y x y E V v L ` v W O W P C S S S R ",
"K X ` L L M x x y x  .X L ` L U P P P W Q R S S R U X X L X E x x y x M L L X X U P P W W Q S S S Q Z ` X v V E y x x x  .L X X L N P P W P Q S S S Y L X X v `  .y x y E V v L ` v W O W P C S S S R ",
"K X ` L L M x x y x  .X L ` L U P P P W Q R S S R U X X L X E x x y x M L L X X U P P W W Q S S S Q Z ` X v V E y x x x  .L X X L N P P W P Q S S S Y L X X v `  .y x y E V v L ` v W O W P C S S S R ",
"K X ` L L M x x y x  .X L ` L U P P P W Q R S S R U X X L X E x x y x M L L X X U P P W W Q S S S Q Z ` X v V E y x x x  .L X X L N P P W P Q S S S Y L X X v `  .y x y E V v L ` v W O W P C S S S R ",
"K X ` L L M x x y x  .X L ` L U P P P W Q R S S R U X X L X E x x y x M L L X X U P P W W Q S S S Q Z ` X v V E y x x x  .L X X L N P P W P Q S S S Y L X X v `  .y x y E V v L ` v W O W P C S S S R ",
"K X ` L L M x x y x  .X L ` L U P P P W Q R S S R U X X L X E x x y x M L L X X U P P W W Q S S S Q Z ` X v V E y x x x  .L X X L N P P W P Q S S S Y L X X v `  .y x y E V v L ` v W O W P C S S S R ",
"K X ` L L M x x y x  .X L ` L U P P P W Q R S S R U X X L X E x x y x M L L X X U P P W W Q S S S Q Z ` X v V E y x x x  .L X X L N P P W P Q S S S Y L X X v `  .y x y E V v L ` v W O W P C S S S R ",
"K X ` L L M x x y x  .X L ` L U P P P W Q R S S R U X X L X E x x y x M L L X X U P P W W Q S S S Q Z ` X v V E y x x x  .L X X L N P P W P Q S S S Y L X X v `  .y x y E V v L ` v W O W P C S S S R ",
"K X ` L L M x x y x  .X L ` L U P P P W Q R S S R U X X L X E x x y x M L L X X U P P W W Q S S S Q Z ` X v V E y x x x  .L X X L N P P W P Q S S S Y L X X v `  .y x y E V v L ` v W O W P C S S S R ",
"K X ` L L M x x y x  .X L ` L U P P P W Q R S S R U X X L X E x x y x M L L X X U P P W W Q S S S Q Z ` X v V E y x x x  .L X X L N P P W P Q S S S Y L X X v `  .y x y E V v L ` v W O W P C S S S R ",
"K X ` L L M x x y x  .X L ` L U P P P W Q R S S R U X X L X E x x y x M L L X X U P P W W Q S S S Q Z ` X v V E y x x x  .L X X L N P P W P Q S S S Y L X X v `  .y x y E V v L ` v W O W P C S S S R ",
"K X ` L L M x x y x  .X L ` L U P P P W Q R S S R U X X L X E x x y x M L L X X U P P W W Q S S S Q Z ` X v V E y x x x  .L X X L N P P W P Q S S S Y L X X v `  .y x y E V v L ` v W O W P C S S S R ",
"K X ` L L M x x y x  .X L ` L U P P P W Q R S S R U X X L X E x x y x M L L X X U P P W W Q S S S Q Z ` X v V E y x x x  .L X X L N P P W P Q S S S Y L X X v `  .y x y E V v X ` v W O W P C S S S R ",
"K X ` L L M x x y x  .X L ` L U P P P W Q R S S R U X X L X E x x y x M L L X X U P P W W Q S S S Q Z ` X v V E y x x x  .L X X L N P P W P Q S S S Y L X X v `  .y x y E V v X ` v W O W P C S S S R ",
"K L X L L M x x y x  .X L ` L U P P P W Q R S S R U X X L X E x x y x M L L X X U P O W W Q S S S Q Z ` X v V E y x x x  .L X X L N P P P P Q S S S Y L X X v `  .y x y E V v L ` v W O W P C S S S R ",
"K L X L L M x x y x  .X L ` L U P P P W Q R S S R U X X L ` E x x y x M L L X X U P P W W Q S S S Q Z ` X v V E y x x x  .L X X L N P P W P Q S S S Y X X X v `  .y x y E V v X ` v W O P W C S S S R ",
"K X ` L L M x y y x  .X X ` L U P W W W Q R S S S U X X L ` E y x y x M L X ` X U W P W W Q S S S Q Z ` X v V E y x x x  .L L X L N P P W P B S S S Y X ` X v `  .y x y E V v X X v W P W W C S S S R ",
"K L L v v M E E E E M L v L v N P O O O Q Q +.+.+.U L L v X  .E E E E V v v L v U P O P O @.#.+.+.@.U X L v V  .E E E E M v v L v W O O O O Q +.+.Q P L L L L X M E E E  .` v L L U P O O P C +.+.+.#.",
"$.%.&.%.$.K ` ` V ` U W W N P C R R R R *.=.-.;.=.%.&.&.>.&.` ` ` V ` U W W N W Y R R R +.,.'.'.;.=.>.&.>.'.&.X V ` ` ` v W W W P Q R R R #.;.$.=.=.).&.%.%.>.&.X V ` V L U W W N Y B R R R @.=.$.;.).",
"!.'.'.=.'.K X v L L U P P W O C S S S S *.$.%.$.~.{.-.-.'.>.K L L L v N P P W P Q S S ].^.,.%.%.{.{.{./.=.(._.K X L L L U P P P O Q S S S #.-._.$.$.$./.'.=.(.&.v L L X v N O P W Y :.S S R @.'._.$.$.",
"{./.$.!.'.K L L X X U P P W P R ].S S S *.$.%.$.$.!.$.-.'.>.K X L X v N P P W P Q S S S ^.,.%.%.$.$.{.{.'.=.&.L X L X L U P P P O +.S S S #.-._.$.{.{././.=.(.&.v X L X v N O P W O R S R R @.~._.'.~.",
"$.$.$.'.(.&.L L L L U P P W P Q S S R R *.$._.%.-.'.$.'.'.&.L X L L v N P P W P Q S S S ^.,.%.$.-.$.$.$.=.=.&.L L L L L U P P P O Q S R S #.'._.%.{.{.$.'.=.(.&.K X L X v N O P W O R S R R @.$._.$.$.",
"%.&.&.&.&.L V V M V ` N N U N O Q Q Q Q *.<.;.;.<.&.&.&.&.K V M V M V v N N N N O C Q Q Q *.<.<.<.;.&.&.&.&.K V M M M V X W N U N Y Q Q Q @.,.;.;.;.;.&.&.&.&.K ` M V M V Z N U U W Q Q Q Q @.,.<.;.;.",
"K L X L v M E x y x M L L ` v N P W W W Y R R R R U X X L ` E y x x E V L L X L U W P W P Q R R S Q Z ` L v V E y x x x  .L L X v N P W W P C R R R P L * L v `  .x x x E V K X X Z W P W P Q R R R R ",
"K L X L L M x y y x  .X X ` L U P W W W Q R S S R U X X L X E x y y x V L X ` X U P P W W Q S S S Q Z ` X v V E y x x x  .L L X X U P P W P B ].S S Y L X L v `  .y x y E V v X ` v W O W W C S ].].R ",
"_.L X v L M x x x E M X L ` L U P W W W Q R S R R U X X L `  .x x x E V L L X X U P P W W Q S S S Q Z ` X L V E y x x E M L L X L N O P W P B S S S Y X X L v `  .y x y E V v X ` v W O W P C S S S R ",
"_.L ` L * [.}.|.|.y  .X X ` L U P P P P Q S ].S S U X X L ` E y y y E M X X X X U P P W P C S S S Q Z ` X L V E |.y y x  .X X X L N O P W P B ].].S Y X ` X L V  .|.|.y E V v * q v W O W P C S ].].R ",
"&.L X L v D 1.E E 2.V L L X L U W W W W O +.^.^.^.N L L L X  .E E E  .V L L L K U W W W P #.^.^.R Q U L L v V w E E E E V L L L v N P P W P Q R R +.P v X L L `  .2.E E w ` v X X v 3.P W W C R ^.R ^.",
">.&.U &.&.L V ` V V K U K K U &.).).).3.<.,.,.,.,.>.K K &.4.` V ` V ` K K K K &.5.).).).;.<.,.,.,.<.).K K &.K ` V ` ` V L U K K K 5.3.3.).3.<.,.,.,.;.&.K K &.&.X V ` V ` K &.&.K &.).).).;.<.,.,.,.,."};
